<svg width="1440" height="389" viewBox="0 0 1440 389" fill="none" xmlns="http://www.w3.org/2000/svg">
<path fill-rule="evenodd" clip-rule="evenodd" d="M0 0L34 51C69 101 137 202 206 216C274 231 343 159 411 101C480 43 549 0 617 43C686 87 754 216 823 231C891 245 960 144 1029 94C1097 43 1166 43 1234 51C1303 58 1371 72 1406 79L1440 87V389H1406C1371 389 1303 389 1234 389C1166 389 1097 389 1029 389C960 389 891 389 823 389C754 389 686 389 617 389C549 389 480 389 411 389C343 389 274 389 206 389C137 389 69 389 34 389H0V0Z" fill="#BB98BB"/>
<path fill-rule="evenodd" clip-rule="evenodd" d="M0 138L60 169.919C120 201.113 240 263.5 360 284.538C480 305.575 600 284.538 720 294.694C840 305.575 960 346.925 1080 362.884C1200 378.844 1320 367.962 1380 362.884L1440 357.806V389H1380C1320 389 1200 389 1080 389C960 389 840 389 720 389C600 389 480 389 360 389C240 389 120 389 60 389H0V138Z" fill="#CB2A70"/>
<path fill-rule="evenodd" clip-rule="evenodd" d="M0 354.094L60 356.935C120 359.776 240 365.459 360 362.617C480 359.776 600 348.006 720 321.623C840 295.646 960 254.652 1080 240.04C1200 225.428 1320 237.199 1380 242.881L1440 248.563V389H1380C1320 389 1200 389 1080 389C960 389 840 389 720 389C600 389 480 389 360 389C240 389 120 389 60 389H0V354.094Z" fill="#CFECEE"/>
</svg>
